<?xml version="1.0" encoding="UTF-8" standalone="no"?><!DOCTYPE svg PUBLIC "-//W3C//DTD SVG 1.1//EN" "http://www.w3.org/Graphics/SVG/1.1/DTD/svg11.dtd"><svg width="100%" height="100%" viewBox="0 0 1600 1600" version="1.1" xmlns="http://www.w3.org/2000/svg" xmlns:xlink="http://www.w3.org/1999/xlink" xml:space="preserve" xmlns:serif="http://www.serif.com/" style="fill-rule:evenodd;clip-rule:evenodd;stroke-linecap:round;stroke-linejoin:round;stroke-miterlimit:1.5;"><path d="M223,872l291,5c0,0 54.646,202.759 -120,339c-174.646,136.241 -238,-104 -238,-104l644,-488l-644,488l644,-488c0,0 142.072,-104.771 134,-187c-8.072,-82.229 -208.939,-7.252 -209,-7c-0.061,0.252 -65,617 -65,617c0,0 124.159,313.666 400,144c275.841,-169.666 6.304,-343.988 -87,-353c-93.304,-9.012 -313,209 -313,209" style="fill:none;stroke:#000;stroke-width:15px;"/></svg>